<svg width="14" height="17" viewBox="0 0 14 17" fill="none" xmlns="http://www.w3.org/2000/svg">
<path d="M9.17942 0.391769H2.13561C1.27469 0.391769 0.570312 1.09615 0.570312 1.95706V14.4794C0.570312 15.3403 1.27469 16.0447 2.13561 16.0447H11.5274C12.3883 16.0447 13.0927 15.3403 13.0927 14.4794V4.305L9.17942 0.391769ZM2.13561 14.4794V1.95706H8.39678V5.08765H11.5274V14.4794H2.13561ZM9.96207 6.65294V10.5662C9.96207 12.2958 8.56113 13.6968 6.83148 13.6968C5.10184 13.6968 3.7009 12.2958 3.7009 10.5662V5.47897C3.70051 5.20463 3.75782 4.93327 3.8691 4.68251C3.98039 4.43174 4.14316 4.20719 4.34686 4.02342C4.55056 3.83965 4.79063 3.70076 5.05148 3.61579C5.31234 3.53082 5.58815 3.50165 5.861 3.53018C6.87844 3.63193 7.61413 4.56328 7.61413 5.58854V10.5662H6.04884V5.47897C6.04884 5.25983 5.87666 5.08765 5.65752 5.08765C5.43837 5.08765 5.26619 5.25983 5.26619 5.47897V10.5662C5.26619 11.4271 5.97057 12.1315 6.83148 12.1315C7.6924 12.1315 8.39678 11.4271 8.39678 10.5662V6.65294H9.96207Z" fill="#112647"/>
</svg>
