<svg width="26" height="31" viewBox="0 0 26 31" fill="none" xmlns="http://www.w3.org/2000/svg">
<path fill-rule="evenodd" clip-rule="evenodd" d="M25.7142 8.93916V26.7527C25.7142 27.7473 25.3303 28.7012 24.6471 29.4045C23.9639 30.1078 23.0373 30.5029 22.0711 30.5029H20.2496V28.6278H22.0711C22.5542 28.6278 23.0175 28.4303 23.3591 28.0786C23.7007 27.727 23.8926 27.25 23.8926 26.7527V8.93916H20.2496C19.5249 8.93916 18.8299 8.64283 18.3175 8.11535C17.8051 7.58787 17.5173 6.87246 17.5173 6.1265V2.37627H7.4988C7.01569 2.37627 6.55238 2.57383 6.21077 2.92548C5.86917 3.27713 5.67726 3.75407 5.67726 4.25138V21.1274H3.85572V4.25138C3.85572 3.25676 4.23954 2.30288 4.92275 1.59957C5.60596 0.896271 6.53259 0.50116 7.4988 0.50116L17.5173 0.50116L25.7142 8.93916ZM3.12711 22.7212H0.212646V30.2198H1.65348V27.7034H3.11618C3.63896 27.7034 4.08341 27.5965 4.44954 27.379C4.81931 27.1596 5.10165 26.8634 5.29291 26.4902C5.49144 26.0986 5.59222 25.6624 5.58618 25.2208C5.58618 24.752 5.48964 24.3282 5.29838 23.9513C5.10814 23.5766 4.81729 23.2662 4.46047 23.0569C4.09616 22.8319 3.65353 22.7212 3.12711 22.7212ZM4.11984 25.2208C4.12641 25.4678 4.0732 25.7127 3.96501 25.9333C3.86795 26.1254 3.71686 26.2829 3.53149 26.3852C3.31944 26.4932 3.08489 26.546 2.84841 26.539H1.64802V23.9026H2.85023C3.24733 23.9026 3.55881 24.0151 3.78286 24.242C4.00691 24.4707 4.11984 24.797 4.11984 25.2208ZM6.33665 22.7212V30.2198H8.9961C9.72654 30.2198 10.3331 30.0698 10.814 29.7754C11.3006 29.4757 11.6806 29.0227 11.8978 28.4835C12.1346 27.9209 12.2548 27.2421 12.2548 26.4508C12.2548 25.6633 12.1364 24.992 11.8978 24.4351C11.6832 23.902 11.3068 23.4547 10.8249 23.16C10.344 22.8675 9.73382 22.7212 8.99428 22.7212H6.33665ZM7.77749 23.9307H8.80302C9.25476 23.9307 9.62271 24.0244 9.91233 24.2157C10.213 24.4181 10.4398 24.7175 10.5572 25.067C10.7011 25.4439 10.7721 25.9146 10.7721 26.479C10.7777 26.8529 10.7361 27.2261 10.6482 27.589C10.5833 27.8753 10.4618 28.1446 10.2912 28.3803C10.1327 28.5906 9.92275 28.7537 9.68282 28.8528C9.40169 28.9611 9.10311 29.0133 8.80302 29.0066H7.77749V23.9307ZM14.5955 27.2365V30.2198H13.1565V22.7212H17.7978V23.9457H14.5955V26.0402H17.5209V27.2365H14.5955Z" fill="#EAC170"/>
</svg>
